<svg xmlns="http://www.w3.org/2000/svg" width="312" height="305" viewBox="0 0 312 305" fill="none">
<path d="M 141 198 L 132 198 L 131 199 L 129 199 L 125 201 L 121 205 L 118 211 L 116 222 L 114 226 L 112 237 L 110 241 L 110 244 L 109 245 L 109 248 L 107 252 L 107 255 L 105 260 L 105 264 L 104 265 L 105 270 L 109 274 L 113 276 L 116 276 L 117 277 L 123 278 L 124 279 L 127 279 L 128 280 L 132 280 L 133 279 L 135 279 L 138 276 L 140 272 L 141 266 L 142 265 L 143 259 L 144 258 L 144 255 L 145 254 L 145 251 L 147 247 L 149 236 L 151 232 L 152 225 L 154 221 L 154 211 L 152 206 L 146 200 Z" fill="#088f9c" />
<path d="M 185 183 L 180 188 L 177 195 L 177 203 L 178 204 L 179 208 L 182 211 L 182 212 L 220 250 L 225 253 L 232 253 L 234 252 L 248 238 L 250 234 L 250 230 L 247 224 L 208 185 L 207 185 L 205 183 L 201 181 L 198 181 L 197 180 L 193 180 L 192 181 L 189 181 Z" fill="#088f9c" />
<path d="M 113 163 L 106 155 L 102 153 L 97 153 L 95 152 L 94 153 L 90 153 L 89 154 L 82 155 L 78 157 L 67 159 L 63 161 L 60 161 L 59 162 L 56 162 L 52 164 L 49 164 L 48 165 L 45 165 L 44 166 L 41 166 L 40 167 L 35 168 L 31 171 L 29 175 L 29 181 L 30 182 L 30 185 L 31 186 L 31 189 L 32 190 L 33 196 L 36 201 L 40 203 L 47 203 L 51 201 L 62 199 L 66 197 L 69 197 L 70 196 L 73 196 L 74 195 L 77 195 L 81 193 L 84 193 L 85 192 L 88 192 L 89 191 L 92 191 L 96 189 L 102 188 L 110 183 L 113 178 L 113 176 L 114 175 L 114 166 L 113 165 Z" fill="#088f9c" />
<path d="M 273 114 L 269 109 L 264 107 L 263 108 L 258 108 L 257 109 L 250 110 L 246 112 L 235 114 L 231 116 L 228 116 L 227 117 L 224 117 L 220 119 L 217 119 L 216 120 L 213 120 L 212 121 L 209 121 L 208 122 L 203 123 L 196 129 L 194 133 L 194 135 L 193 136 L 193 145 L 196 151 L 200 155 L 207 158 L 214 158 L 215 157 L 218 157 L 219 156 L 230 154 L 234 152 L 237 152 L 238 151 L 241 151 L 242 150 L 245 150 L 249 148 L 252 148 L 253 147 L 256 147 L 260 145 L 263 145 L 264 144 L 270 143 L 274 141 L 277 137 L 277 128 L 275 124 L 275 121 L 274 120 Z" fill="#088f9c" />
<path d="M 47 35 L 31 52 L 31 59 L 34 64 L 101 130 L 105 132 L 116 132 L 122 129 L 126 125 L 129 118 L 129 110 L 124 101 L 60 37 L 54 34 Z" fill="#088f9c" />
<path d="M 185 6 L 179 6 L 175 8 L 171 14 L 133 156 L 134 164 L 137 170 L 143 175 L 150 177 L 157 176 L 163 173 L 168 167 L 207 23 L 206 15 L 203 12 Z" fill="#088f9c" />
</svg>